<svg width="29" height="29" viewBox="0 0 29 29" fill="none" xmlns="http://www.w3.org/2000/svg">
<path d="M14.4999 20.0549C17.5684 20.0549 20.0559 17.5674 20.0559 14.4989C20.0559 11.4304 17.5684 8.94287 14.4999 8.94287C11.4314 8.94287 8.94385 11.4304 8.94385 14.4989C8.94385 17.5674 11.4314 20.0549 14.4999 20.0549Z" fill="#1C9ED4"/>
<path d="M14.4999 20.0549C17.5684 20.0549 20.0559 17.5674 20.0559 14.4989C20.0559 11.4304 17.5684 8.94287 14.4999 8.94287C11.4314 8.94287 8.94385 11.4304 8.94385 14.4989C8.94385 17.5674 11.4314 20.0549 14.4999 20.0549Z" stroke="#1C9ED4" stroke-opacity="0.5"/>
<path d="M14.5 24C19.7467 24 24 19.7467 24 14.5C24 9.25329 19.7467 5 14.5 5C9.25329 5 5 9.25329 5 14.5C5 19.7467 9.25329 24 14.5 24Z" stroke="#1C9ED4" stroke-opacity="0.5"/>
<path d="M14.5 28C21.9558 28 28 21.9558 28 14.5C28 7.04416 21.9558 1 14.5 1C7.04416 1 1 7.04416 1 14.5C1 21.9558 7.04416 28 14.5 28Z" stroke="#1C9ED4" stroke-opacity="0.5"/>
</svg>
