<svg width="83" height="20" viewBox="0 0 83 20" fill="none" xmlns="http://www.w3.org/2000/svg">
<path d="M20 10C20 15.5228 15.5228 20 10 20C4.47715 20 0 15.5228 0 10C0 4.47715 4.47715 0 10 0C15.5228 0 20 4.47715 20 10Z" fill="#09D7E0"/>
<path d="M52 10C52 15.5228 47.5228 20 42 20C36.4772 20 32 15.5228 32 10C32 4.47715 36.4772 0 42 0C47.5228 0 52 4.47715 52 10Z" fill="#2AB6BC"/>
<path d="M83 10C83 15.5228 78.5228 20 73 20C67.4772 20 63 15.5228 63 10C63 4.47715 67.4772 0 73 0C78.5228 0 83 4.47715 83 10Z" fill="#4C8D91"/>
</svg>
