<svg width="1920" height="282" viewBox="0 0 1920 282" fill="none" xmlns="http://www.w3.org/2000/svg">
<g clip-path="url(#clip0_119_81)">
<path d="M0 281L140.121 186.083H299.075L460.29 130.25L608.698 166.541L756.352 78.138L931.126 58.597L1130.01 12.999L1312.32 58.597L1462.98 166.541L1608.38 104.194H1775.62L1920 207" stroke="#02AFB7"/>
<path d="M142 191.555C145.068 191.555 147.556 189.067 147.556 185.999C147.556 182.93 145.068 180.443 142 180.443C138.931 180.443 136.444 182.93 136.444 185.999C136.444 189.067 138.931 191.555 142 191.555Z" fill="#02AFB7"/>
<path d="M142 195.5C147.247 195.5 151.5 191.247 151.5 186C151.5 180.753 147.247 176.5 142 176.5C136.753 176.5 132.5 180.753 132.5 186C132.5 191.247 136.753 195.5 142 195.5Z" stroke="#02AFB7"/>
<path d="M142 199.5C149.456 199.5 155.5 193.456 155.5 186C155.5 178.544 149.456 172.5 142 172.5C134.544 172.5 128.5 178.544 128.5 186C128.5 193.456 134.544 199.5 142 199.5Z" stroke="#02AFB7" stroke-opacity="0.5"/>
<path d="M301 191.555C304.068 191.555 306.556 189.067 306.556 185.999C306.556 182.93 304.068 180.443 301 180.443C297.931 180.443 295.444 182.93 295.444 185.999C295.444 189.067 297.931 191.555 301 191.555Z" fill="#02AFB7"/>
<path d="M301 195.5C306.247 195.5 310.5 191.247 310.5 186C310.5 180.753 306.247 176.5 301 176.5C295.753 176.5 291.5 180.753 291.5 186C291.5 191.247 295.753 195.5 301 195.5Z" stroke="#02AFB7"/>
<path d="M301 199.5C308.456 199.5 314.5 193.456 314.5 186C314.5 178.544 308.456 172.5 301 172.5C293.544 172.5 287.5 178.544 287.5 186C287.5 193.456 293.544 199.5 301 199.5Z" stroke="#02AFB7" stroke-opacity="0.5"/>
<path d="M462 136.555C465.068 136.555 467.556 134.067 467.556 130.999C467.556 127.93 465.068 125.443 462 125.443C458.931 125.443 456.444 127.93 456.444 130.999C456.444 134.067 458.931 136.555 462 136.555Z" fill="#02AFB7"/>
<path d="M462 140.5C467.247 140.5 471.5 136.247 471.5 131C471.5 125.753 467.247 121.5 462 121.5C456.753 121.5 452.5 125.753 452.5 131C452.5 136.247 456.753 140.5 462 140.5Z" stroke="#02AFB7"/>
<path d="M462 144.5C469.456 144.5 475.5 138.456 475.5 131C475.5 123.544 469.456 117.5 462 117.5C454.544 117.5 448.5 123.544 448.5 131C448.5 138.456 454.544 144.5 462 144.5Z" stroke="#02AFB7" stroke-opacity="0.5"/>
<path d="M610 171.555C613.068 171.555 615.556 169.067 615.556 165.999C615.556 162.93 613.068 160.443 610 160.443C606.931 160.443 604.444 162.93 604.444 165.999C604.444 169.067 606.931 171.555 610 171.555Z" fill="#02AFB7"/>
<path d="M610 175.5C615.247 175.5 619.5 171.247 619.5 166C619.5 160.753 615.247 156.5 610 156.5C604.753 156.5 600.5 160.753 600.5 166C600.5 171.247 604.753 175.5 610 175.5Z" stroke="#02AFB7"/>
<path d="M610 179.5C617.456 179.5 623.5 173.456 623.5 166C623.5 158.544 617.456 152.5 610 152.5C602.544 152.5 596.5 158.544 596.5 166C596.5 173.456 602.544 179.5 610 179.5Z" stroke="#02AFB7" stroke-opacity="0.5"/>
<path d="M757 83.5549C760.068 83.5549 762.556 81.0674 762.556 77.9989C762.556 74.9304 760.068 72.4429 757 72.4429C753.931 72.4429 751.444 74.9304 751.444 77.9989C751.444 81.0674 753.931 83.5549 757 83.5549Z" fill="#02AFB7"/>
<path d="M757 87.499C762.247 87.499 766.5 83.2457 766.5 77.999C766.5 72.7523 762.247 68.499 757 68.499C751.753 68.499 747.5 72.7523 747.5 77.999C747.5 83.2457 751.753 87.499 757 87.499Z" stroke="#02AFB7"/>
<path d="M757 91.499C764.456 91.499 770.5 85.4549 770.5 77.999C770.5 70.5432 764.456 64.499 757 64.499C749.544 64.499 743.5 70.5432 743.5 77.999C743.5 85.4549 749.544 91.499 757 91.499Z" stroke="#02AFB7" stroke-opacity="0.5"/>
<path d="M934 63.5549C937.068 63.5549 939.556 61.0674 939.556 57.9989C939.556 54.9304 937.068 52.4429 934 52.4429C930.931 52.4429 928.444 54.9304 928.444 57.9989C928.444 61.0674 930.931 63.5549 934 63.5549Z" fill="#02AFB7"/>
<path d="M934 67.499C939.247 67.499 943.5 63.2457 943.5 57.999C943.5 52.7523 939.247 48.499 934 48.499C928.753 48.499 924.5 52.7523 924.5 57.999C924.5 63.2457 928.753 67.499 934 67.499Z" stroke="#02AFB7"/>
<path d="M934 71.499C941.456 71.499 947.5 65.4549 947.5 57.999C947.5 50.5432 941.456 44.499 934 44.499C926.544 44.499 920.5 50.5432 920.5 57.999C920.5 65.4549 926.544 71.499 934 71.499Z" stroke="#02AFB7" stroke-opacity="0.5"/>
<path d="M1131 19.5549C1134.07 19.5549 1136.56 17.0674 1136.56 13.9989C1136.56 10.9304 1134.07 8.44287 1131 8.44287C1127.93 8.44287 1125.44 10.9304 1125.44 13.9989C1125.44 17.0674 1127.93 19.5549 1131 19.5549Z" fill="#02AFB7"/>
<path d="M1131 23.499C1136.25 23.499 1140.5 19.2457 1140.5 13.999C1140.5 8.75232 1136.25 4.49902 1131 4.49902C1125.75 4.49902 1121.5 8.75232 1121.5 13.999C1121.5 19.2457 1125.75 23.499 1131 23.499Z" stroke="#02AFB7"/>
<path d="M1131 27.499C1138.46 27.499 1144.5 21.4549 1144.5 13.999C1144.5 6.54318 1138.46 0.499023 1131 0.499023C1123.54 0.499023 1117.5 6.54318 1117.5 13.999C1117.5 21.4549 1123.54 27.499 1131 27.499Z" stroke="#02AFB7" stroke-opacity="0.5"/>
<path d="M1312 64.5549C1315.07 64.5549 1317.56 62.0674 1317.56 58.9989C1317.56 55.9304 1315.07 53.4429 1312 53.4429C1308.93 53.4429 1306.44 55.9304 1306.44 58.9989C1306.44 62.0674 1308.93 64.5549 1312 64.5549Z" fill="#02AFB7"/>
<path d="M1312 68.499C1317.25 68.499 1321.5 64.2457 1321.5 58.999C1321.5 53.7523 1317.25 49.499 1312 49.499C1306.75 49.499 1302.5 53.7523 1302.5 58.999C1302.5 64.2457 1306.75 68.499 1312 68.499Z" stroke="#02AFB7"/>
<path d="M1312 72.499C1319.46 72.499 1325.5 66.4549 1325.5 58.999C1325.5 51.5432 1319.46 45.499 1312 45.499C1304.54 45.499 1298.5 51.5432 1298.5 58.999C1298.5 66.4549 1304.54 72.499 1312 72.499Z" stroke="#09D7E0" stroke-opacity="0.5"/>
<path d="M1464 171.555C1467.07 171.555 1469.56 169.067 1469.56 165.999C1469.56 162.93 1467.07 160.443 1464 160.443C1460.93 160.443 1458.44 162.93 1458.44 165.999C1458.44 169.067 1460.93 171.555 1464 171.555Z" fill="#02AFB7"/>
<path d="M1464 175.5C1469.25 175.5 1473.5 171.247 1473.5 166C1473.5 160.753 1469.25 156.5 1464 156.5C1458.75 156.5 1454.5 160.753 1454.5 166C1454.5 171.247 1458.75 175.5 1464 175.5Z" stroke="#02AFB7"/>
<path d="M1464 179.5C1471.46 179.5 1477.5 173.456 1477.5 166C1477.5 158.544 1471.46 152.5 1464 152.5C1456.54 152.5 1450.5 158.544 1450.5 166C1450.5 173.456 1456.54 179.5 1464 179.5Z" stroke="#02AFB7" stroke-opacity="0.5"/>
<path d="M1607 111.555C1610.07 111.555 1612.56 109.067 1612.56 105.999C1612.56 102.93 1610.07 100.443 1607 100.443C1603.93 100.443 1601.44 102.93 1601.44 105.999C1601.44 109.067 1603.93 111.555 1607 111.555Z" fill="#02AFB7"/>
<path d="M1607 115.5C1612.25 115.5 1616.5 111.247 1616.5 106C1616.5 100.753 1612.25 96.5 1607 96.5C1601.75 96.5 1597.5 100.753 1597.5 106C1597.5 111.247 1601.75 115.5 1607 115.5Z" stroke="#02AFB7"/>
<path d="M1607 119.5C1614.46 119.5 1620.5 113.456 1620.5 106C1620.5 98.5442 1614.46 92.5 1607 92.5C1599.54 92.5 1593.5 98.5442 1593.5 106C1593.5 113.456 1599.54 119.5 1607 119.5Z" stroke="#02AFB7" stroke-opacity="0.5"/>
<path d="M1777 111.555C1780.07 111.555 1782.56 109.067 1782.56 105.999C1782.56 102.93 1780.07 100.443 1777 100.443C1773.93 100.443 1771.44 102.93 1771.44 105.999C1771.44 109.067 1773.93 111.555 1777 111.555Z" fill="#02AFB7"/>
<path d="M1777 115.5C1782.25 115.5 1786.5 111.247 1786.5 106C1786.5 100.753 1782.25 96.5 1777 96.5C1771.75 96.5 1767.5 100.753 1767.5 106C1767.5 111.247 1771.75 115.5 1777 115.5Z" stroke="#02AFB7"/>
<path d="M1777 119.5C1784.46 119.5 1790.5 113.456 1790.5 106C1790.5 98.5442 1784.46 92.5 1777 92.5C1769.54 92.5 1763.5 98.5442 1763.5 106C1763.5 113.456 1769.54 119.5 1777 119.5Z" stroke="#02AFB7" stroke-opacity="0.5"/>
</g>
<defs>
<clipPath id="clip0_119_81">
<rect width="1920" height="282" fill="white"/>
</clipPath>
</defs>
</svg>
