<svg width="90" height="90" viewBox="0 0 90 90" fill="none" xmlns="http://www.w3.org/2000/svg">
<g clip-path="url(#clip0_114_23)">
<path d="M45 88.5C69.0244 88.5 88.5 69.0244 88.5 45C88.5 20.9756 69.0244 1.5 45 1.5C20.9756 1.5 1.5 20.9756 1.5 45C1.5 69.0244 20.9756 88.5 45 88.5Z" stroke="url(#paint0_linear_114_23)" stroke-width="3"/>
<path d="M45.156 76.043C62.3868 76.043 76.355 62.0748 76.355 44.844C76.355 27.6133 62.3868 13.645 45.156 13.645C27.9253 13.645 13.957 27.6133 13.957 44.844C13.957 62.0748 27.9253 76.043 45.156 76.043Z" stroke="url(#paint1_linear_114_23)" stroke-width="3"/>
<path d="M55.3582 53.221C55.3582 54.675 54.9802 55.983 54.2242 57.145C53.4692 58.279 52.4222 59.18 51.0852 59.848C49.7772 60.517 48.2512 60.851 46.5072 60.851C46.418 60.8463 46.3289 60.8613 46.2462 60.895C46.2174 60.9234 46.1948 60.9574 46.1796 60.9949C46.1645 61.0324 46.1572 61.0726 46.1582 61.113V64.121C46.1582 64.354 46.0572 64.47 45.8532 64.47H44.8072C44.6032 64.47 44.5022 64.397 44.5022 64.252V61.112C44.5022 60.996 44.4872 60.924 44.4582 60.895C44.4292 60.865 44.3712 60.851 44.2842 60.851C41.6972 60.851 39.5902 60.401 37.9622 59.5C36.3632 58.599 35.0122 57.262 33.9072 55.489C33.7332 55.198 33.7622 54.979 33.9952 54.835L34.6922 54.399C34.8141 54.3393 34.9484 54.3092 35.0842 54.311C35.2302 54.311 35.3312 54.355 35.3902 54.442C36.4942 55.925 37.7002 57.058 39.0082 57.842C40.3452 58.599 42.0752 58.977 44.1972 58.977C44.4002 58.977 44.5022 58.875 44.5022 58.671V45.984C44.5055 45.8629 44.484 45.7424 44.4389 45.6299C44.3938 45.5174 44.3262 45.4154 44.2402 45.33C44.0662 45.127 43.8192 44.952 43.4992 44.807C41.4062 43.847 39.7352 42.976 38.4852 42.191C37.2352 41.377 36.3352 40.491 35.7822 39.531C35.2592 38.572 34.9972 37.41 34.9972 36.044C34.9972 34.445 35.3902 33.05 36.1742 31.858C36.9592 30.638 38.0342 29.664 39.4012 28.937C40.7962 28.181 42.3802 27.745 44.1532 27.629C44.1936 27.6303 44.2338 27.6232 44.2714 27.6083C44.3089 27.5935 44.3431 27.571 44.3716 27.5425C44.4002 27.5139 44.4226 27.4798 44.4375 27.4422C44.4524 27.4046 44.4594 27.3644 44.4582 27.324V24.882C44.4582 24.795 44.4732 24.722 44.5022 24.664C44.5307 24.6354 44.5647 24.613 44.6022 24.598C44.6397 24.583 44.6798 24.5759 44.7202 24.577H45.7662C45.9112 24.577 45.9992 24.621 46.0282 24.707C46.0862 24.767 46.1152 24.867 46.1152 25.013V27.367C46.1152 27.571 46.2172 27.673 46.4202 27.673C48.2222 27.818 49.7772 28.254 51.0852 28.981C52.4222 29.678 53.6432 30.623 54.7472 31.814C54.9802 32.047 54.9802 32.251 54.7472 32.424L53.7452 33.166C53.6282 33.253 53.5412 33.282 53.4832 33.253C53.4252 33.224 53.3232 33.123 53.1782 32.948C52.4802 32.076 51.5362 31.349 50.3442 30.768C49.1812 30.158 47.9032 29.765 46.5072 29.591C46.3622 29.561 46.2602 29.576 46.2022 29.635C46.1442 29.693 46.1152 29.795 46.1152 29.94V43.107C46.1152 43.397 46.2752 43.615 46.5952 43.761L47.7722 44.284C49.4282 44.981 50.8242 45.766 51.9572 46.638C53.0912 47.481 53.9342 48.44 54.4862 49.516C55.0672 50.591 55.3582 51.826 55.3582 53.221ZM44.4582 29.853C44.4582 29.591 44.3132 29.489 44.0222 29.547C41.9882 29.722 40.3312 30.405 39.0522 31.597C37.7732 32.788 37.1342 34.285 37.1342 36.087C37.1342 36.901 37.3222 37.671 37.7002 38.397C38.0782 39.096 38.7322 39.793 39.6622 40.491C40.6222 41.159 41.9292 41.871 43.5862 42.627C43.8192 42.743 44.0222 42.772 44.1962 42.714C44.3712 42.627 44.4582 42.438 44.4582 42.147V29.853ZM46.1582 58.715C46.1582 58.889 46.2602 58.976 46.4642 58.976C48.5272 58.976 50.1702 58.41 51.3902 57.276C52.6112 56.142 53.2212 54.733 53.2212 53.047C53.2212 51.477 52.7272 50.184 51.7392 49.167C50.7512 48.12 49.1382 47.117 46.8992 46.158C46.6962 46.071 46.5222 46.057 46.3762 46.115C46.2312 46.144 46.1582 46.275 46.1582 46.507V58.715Z" fill="url(#paint2_linear_114_23)"/>
</g>
<defs>
<linearGradient id="paint0_linear_114_23" x1="51.228" y1="52.318" x2="33.789" y2="86.73" gradientUnits="userSpaceOnUse">
<stop offset="0.185" stop-color="#02AFB7"/>
<stop offset="1" stop-color="#02AFB7" stop-opacity="0"/>
</linearGradient>
<linearGradient id="paint1_linear_114_23" x1="59.948" y1="31.297" x2="66.799" y2="24.135" gradientUnits="userSpaceOnUse">
<stop stop-color="#087C82"/>
<stop offset="1" stop-color="#087C82" stop-opacity="0"/>
</linearGradient>
<linearGradient id="paint2_linear_114_23" x1="55.4332" y1="24.602" x2="44.5332" y2="62.595" gradientUnits="userSpaceOnUse">
<stop offset="0.191" stop-color="#02AFB7"/>
<stop offset="1" stop-color="#02AFB7" stop-opacity="0"/>
</linearGradient>
<clipPath id="clip0_114_23">
<rect width="90" height="90" fill="white"/>
</clipPath>
</defs>
</svg>
